# xmcd
#
# Track frame offsets:
#	150
#	12801
#	23502
#	35607
#	46103
#	58113
#	70439
#	80567
#	92046
#	104783
#	114019
#	125189
#	135017
#	147494
#	158686
#	166340
#	178346
#	188809
#
# Disc length: 2674 seconds
# Revision: 0
# Processed by: cddbd v1.5.2PL0 Copyright (c) Steve Scherf et al.
# Submitted via: dBpowerAMP V12.0
#
DISCID=f20a7012
DTITLE=Various Artist - Age/Chief Blues Story [CD2 of 2)
DYEAR=2011
DGENRE=Blues
TTITLE0=Ricky Allen - Cut You A-Loose
TTITLE1=A.C. Reed - This Little Voice
TTITLE2=Earl Hooker - Blue Guitar
TTITLE3=Ricky Allen - You'd Better Be Sure
TTITLE4=Reggie (Guitar) Boyd - Nothing But Poison
TTITLE5=A.C. Reed - Lotta Loving
TTITLE6=Big Moose and The Jams - Bright Sounds
TTITLE7=Earl Hooker - Swear To Tell The Truth
TTITLE8=icky AllenR - Help Me Mama
TTITLE9=A.C. Reed - That Ain't Right
TTITLE10=Reggie (Guitar) Boyd - Nothing But Good
TTITLE11=Ricky Allen - Catch Up With Your Crowd
TTITLE12=A.C. Reed - I Stay Mad
TTITLE13=Ricky Allen - Can I Come Back Home
TTITLE14=Big Moose and The Jams - Off The Hook
TTITLE15=A.C. Reed - I Wanna Be Free
TTITLE16=Ricky Allen - Ouch!
TTITLE17=Sonny Lantz - Blues For Sonny
EXTD=
EXTT0=
EXTT1=
EXTT2=
EXTT3=
EXTT4=
EXTT5=
EXTT6=
EXTT7=
EXTT8=
EXTT9=
EXTT10=
EXTT11=
EXTT12=
EXTT13=
EXTT14=
EXTT15=
EXTT16=
EXTT17=
PLAYORDER=
